<svg viewBox="0 0 60 60" xmlns="http://www.w3.org/2000/svg">
  <defs>
    <linearGradient id="hexGradient" x1="0%" y1="0%" x2="100%" y2="100%">
      <stop offset="0%" style="stop-color:#ecfdf5"/>
      <stop offset="100%" style="stop-color:#f0fdf4"/>
    </linearGradient>
  </defs>
  
  <!-- Hexagonal background -->
  <polygon 
    points="30,8 45,17 45,38 30,47 15,38 15,17" 
    fill="url(#hexGradient)" 
    stroke="#064e3b" 
    stroke-width="2"
  />
  
  <!-- Brain circuit pattern inside -->
  <g transform="translate(30, 27.5)">
    <!-- Central node (gold) -->
    <circle cx="0" cy="0" r="3" fill="#d97706"/>
    
    <!-- Connection lines -->
    <line x1="-12" y1="-8" x2="-6" y2="-4" stroke="#d97706" stroke-width="1.5"/>
    <line x1="6" y1="-4" x2="12" y2="-8" stroke="#d97706" stroke-width="1.5"/>
    <line x1="-8" y1="6" x2="8" y2="6" stroke="#d97706" stroke-width="1.5"/>
    <line x1="0" y1="-12" x2="0" y2="-6" stroke="#d97706" stroke-width="1.5"/>
    <line x1="-6" y1="10" x2="6" y2="10" stroke="#d97706" stroke-width="1.5"/>
    
    <!-- Outer nodes (green) -->
    <circle cx="-12" cy="-8" r="2" fill="#059669"/>
    <circle cx="12" cy="-8" r="2" fill="#059669"/>
    <circle cx="-8" cy="6" r="2" fill="#059669"/>
    <circle cx="8" cy="6" r="2" fill="#059669"/>
    <circle cx="0" cy="-12" r="2" fill="#059669"/>
    <circle cx="-6" cy="10" r="1.5" fill="#059669"/>
    <circle cx="6" cy="10" r="1.5" fill="#059669"/>
  </g>
</svg>